<svg xmlns="http://www.w3.org/2000/svg" xmlns:xlink="http://www.w3.org/1999/xlink" width="1920" zoomAndPan="magnify" viewBox="0 0 1440 809.999993" height="1080" preserveAspectRatio="xMidYMid meet" version="1.0"><defs><g/><clipPath id="b9444b4c67"><path d="M 378 230 L 1062 230 L 1062 316.109375 L 378 316.109375 Z M 378 230 " clip-rule="nonzero"/></clipPath></defs><path fill="#4fc7f3" d="M 1061.585938 231.980469 L 1061.585938 288.03125 L 378.367188 288.03125 L 378.367188 230.792969 C 378.367188 230.792969 400.882812 241.515625 438.5625 215.351562 C 469.136719 194.109375 495.441406 201.191406 523.015625 224.792969 C 530.761719 231.441406 561.164062 238.277344 580.40625 230.1875 C 588.195312 226.894531 599.652344 223.027344 610.78125 215.351562 C 641.359375 194.109375 668.121094 207.367188 695.234375 224.792969 C 703.65625 230.1875 716.554688 233.503906 730.6875 231.953125 C 740.511719 230.875 752.976562 225.710938 767.988281 215.285156 C 798.566406 194.042969 824.871094 201.125 852.441406 224.726562 C 860.191406 231.375 890.59375 238.210938 909.820312 230.121094 C 917.609375 226.828125 929.078125 222.957031 940.210938 215.285156 C 970.785156 194.042969 997.535156 207.300781 1024.664062 224.726562 C 1033.394531 230.46875 1046.789062 232.832031 1061.585938 231.980469 Z M 1061.585938 231.980469 " fill-opacity="1" fill-rule="nonzero"/><g clip-path="url(#b9444b4c67)"><path fill="#15aae2" d="M 1061.585938 260.058594 L 1061.585938 316.109375 L 378.367188 316.109375 L 378.367188 258.886719 C 378.367188 258.886719 400.882812 269.59375 438.5625 243.429688 C 469.136719 222.203125 495.441406 229.269531 523.015625 252.9375 C 530.761719 259.585938 561.164062 266.425781 580.40625 258.332031 C 588.195312 255.042969 599.652344 251.171875 610.78125 243.5 C 641.359375 222.269531 668.121094 235.515625 695.234375 253.007812 C 703.65625 258.402344 716.554688 261.730469 730.6875 260.167969 C 740.511719 259.089844 752.976562 253.921875 767.988281 243.5 C 798.566406 222.269531 824.871094 229.335938 852.441406 253.007812 C 860.191406 259.65625 890.59375 266.492188 909.820312 258.402344 C 917.609375 255.109375 929.078125 251.238281 940.210938 243.566406 C 970.785156 222.339844 997.535156 235.582031 1024.664062 253.074219 C 1033.394531 258.5625 1046.789062 260.910156 1061.585938 260.058594 Z M 1061.585938 260.058594 " fill-opacity="1" fill-rule="nonzero"/></g><path fill="#4fc7f3" d="M 740.203125 211.0625 C 728.949219 199.667969 716.335938 198.777344 720.984375 189.96875 C 725.636719 181.164062 740.203125 198.171875 740.203125 211.0625 Z M 1044.753906 222.796875 C 1033.503906 211.402344 1020.890625 210.511719 1025.539062 201.703125 C 1030.1875 192.898438 1044.753906 209.902344 1044.753906 222.796875 Z M 548.011719 188.054688 C 543.753906 185.804688 536.609375 186.300781 536.636719 193.664062 C 536.636719 204.792969 548.011719 200.167969 556.742188 218.519531 C 558.105469 196.671875 550.449219 189.335938 548.011719 188.054688 Z M 912.058594 188.203125 C 906.171875 185.695312 899.660156 191.46875 896.695312 195.351562 C 893.070312 200.113281 889.957031 206.503906 886.683594 217.804688 C 893.042969 211.210938 898.125 209.175781 901.210938 206.761719 C 905.023438 203.765625 909.671875 200.894531 913.042969 197.402344 C 915.871094 194.460938 916.480469 190.078125 912.058594 188.203125 Z M 422.402344 199.882812 C 417.175781 197.671875 411.394531 202.824219 408.699219 206.234375 C 405.480469 210.457031 402.6875 216.148438 399.820312 226.167969 C 405.519531 220.355469 410.046875 218.507812 412.742188 216.308594 C 416.125 213.613281 420.25 211.105469 423.238281 208 C 425.773438 205.519531 426.324219 201.554688 422.402344 199.882812 Z M 422.402344 199.882812 " fill-opacity="1" fill-rule="nonzero"/><g fill="#000000" fill-opacity="0.4"><g transform="translate(496.992043, 302.929838)"><g><path d="M 0.5 -40.921875 L 0.5 -51.15625 L 36.453125 -51.15625 L 36.453125 -40.921875 L 24.296875 -40.921875 L 24.296875 0 L 12.640625 0 L 12.640625 -40.921875 Z M 0.5 -40.921875 "/></g></g></g><g fill="#000000" fill-opacity="0.4"><g transform="translate(538.589335, 302.929838)"><g><path d="M 3.71875 -51.15625 L 22.015625 -51.15625 C 26.929688 -51.15625 30.9375 -49.84375 34.03125 -47.21875 C 37.132812 -44.59375 38.6875 -40.835938 38.6875 -35.953125 C 38.6875 -32.191406 37.742188 -29.039062 35.859375 -26.5 C 33.984375 -23.957031 31.429688 -22.171875 28.203125 -21.140625 L 45.8125 0 L 31 0 L 15.375 -20.21875 L 15.375 0 L 3.71875 0 Z M 15.375 -28.453125 L 16.734375 -28.453125 C 17.816406 -28.453125 18.726562 -28.472656 19.46875 -28.515625 C 20.207031 -28.554688 21.050781 -28.703125 22 -28.953125 C 22.957031 -29.203125 23.722656 -29.550781 24.296875 -30 C 24.878906 -30.457031 25.375 -31.117188 25.78125 -31.984375 C 26.195312 -32.859375 26.40625 -33.914062 26.40625 -35.15625 C 26.40625 -36.394531 26.195312 -37.445312 25.78125 -38.3125 C 25.375 -39.1875 24.878906 -39.847656 24.296875 -40.296875 C 23.722656 -40.753906 22.957031 -41.101562 22 -41.34375 C 21.050781 -41.59375 20.207031 -41.738281 19.46875 -41.78125 C 18.726562 -41.820312 17.816406 -41.84375 16.734375 -41.84375 L 15.375 -41.84375 Z M 15.375 -28.453125 "/></g></g></g><g fill="#000000" fill-opacity="0.4"><g transform="translate(587.625675, 302.929838)"><g><path d="M 29.703125 -51.15625 L 50.34375 0 L 37.8125 0 L 34.03125 -10.234375 L 14.5625 -10.234375 L 10.78125 0 L -1.734375 0 L 18.90625 -51.15625 Z M 30.0625 -20.453125 L 24.359375 -35.34375 L 24.234375 -35.34375 L 18.53125 -20.453125 Z M 30.0625 -20.453125 "/></g></g></g><g fill="#000000" fill-opacity="0.4"><g transform="translate(640.87748, 302.929838)"><g><path d="M 3.71875 -51.15625 L 18.53125 -51.15625 C 25.644531 -51.15625 31.722656 -48.722656 36.765625 -43.859375 C 41.804688 -39.003906 44.328125 -32.921875 44.328125 -25.609375 C 44.328125 -18.242188 41.816406 -12.132812 36.796875 -7.28125 C 31.773438 -2.425781 25.6875 0 18.53125 0 L 3.71875 0 Z M 15.375 -10.421875 L 17.171875 -10.421875 C 21.429688 -10.421875 24.914062 -11.851562 27.625 -14.71875 C 30.332031 -17.59375 31.707031 -21.203125 31.75 -25.546875 C 31.75 -29.878906 30.394531 -33.492188 27.6875 -36.390625 C 24.976562 -39.285156 21.472656 -40.734375 17.171875 -40.734375 L 15.375 -40.734375 Z M 15.375 -10.421875 "/></g></g></g><g fill="#000000" fill-opacity="0.4"><g transform="translate(691.277647, 302.929838)"><g><path d="M 32.984375 -51.15625 L 32.984375 -40.921875 L 15.375 -40.921875 L 15.375 -30.75 L 32.234375 -30.75 L 32.234375 -20.515625 L 15.375 -20.515625 L 15.375 -10.234375 L 32.984375 -10.234375 L 32.984375 0 L 3.71875 0 L 3.71875 -51.15625 Z M 32.984375 -51.15625 "/></g></g></g><g fill="#000000" fill-opacity="0.4"><g transform="translate(731.883068, 302.929838)"><g><path d="M 42.96875 0 L 34.78125 -28.703125 L 26.59375 0 L 13.640625 0 L -0.9375 -51.15625 L 12.03125 -51.15625 L 20.765625 -16.0625 L 21.078125 -16.0625 L 30.375 -51.15625 L 39.1875 -51.15625 L 48.484375 -16.0625 L 48.796875 -16.0625 L 57.53125 -51.15625 L 70.4375 -51.15625 L 55.859375 0 Z M 42.96875 0 "/></g></g></g><g fill="#000000" fill-opacity="0.4"><g transform="translate(806.026223, 302.929838)"><g><path d="M 29.703125 -51.15625 L 50.34375 0 L 37.8125 0 L 34.03125 -10.234375 L 14.5625 -10.234375 L 10.78125 0 L -1.734375 0 L 18.90625 -51.15625 Z M 30.0625 -20.453125 L 24.359375 -35.34375 L 24.234375 -35.34375 L 18.53125 -20.453125 Z M 30.0625 -20.453125 "/></g></g></g><g fill="#000000" fill-opacity="0.4"><g transform="translate(859.278028, 302.929838)"><g><path d="M 19.71875 0 L -1.734375 -51.15625 L 11.40625 -51.15625 L 24.296875 -17.546875 L 37.203125 -51.15625 L 50.34375 -51.15625 L 28.890625 0 Z M 19.71875 0 "/></g></g></g><g fill="#000000" fill-opacity="0.4"><g transform="translate(912.529834, 302.929838)"><g><path d="M 32.984375 -51.15625 L 32.984375 -40.921875 L 15.375 -40.921875 L 15.375 -30.75 L 32.234375 -30.75 L 32.234375 -20.515625 L 15.375 -20.515625 L 15.375 -10.234375 L 32.984375 -10.234375 L 32.984375 0 L 3.71875 0 L 3.71875 -51.15625 Z M 32.984375 -51.15625 "/></g></g></g><g fill="#5ce1e6" fill-opacity="1"><g transform="translate(494.252036, 300.18979)"><g><path d="M 0.5 -40.921875 L 0.5 -51.15625 L 36.453125 -51.15625 L 36.453125 -40.921875 L 24.296875 -40.921875 L 24.296875 0 L 12.640625 0 L 12.640625 -40.921875 Z M 0.5 -40.921875 "/></g></g></g><g fill="#5ce1e6" fill-opacity="1"><g transform="translate(535.849327, 300.18979)"><g><path d="M 3.71875 -51.15625 L 22.015625 -51.15625 C 26.929688 -51.15625 30.9375 -49.84375 34.03125 -47.21875 C 37.132812 -44.59375 38.6875 -40.835938 38.6875 -35.953125 C 38.6875 -32.191406 37.742188 -29.039062 35.859375 -26.5 C 33.984375 -23.957031 31.429688 -22.171875 28.203125 -21.140625 L 45.8125 0 L 31 0 L 15.375 -20.21875 L 15.375 0 L 3.71875 0 Z M 15.375 -28.453125 L 16.734375 -28.453125 C 17.816406 -28.453125 18.726562 -28.472656 19.46875 -28.515625 C 20.207031 -28.554688 21.050781 -28.703125 22 -28.953125 C 22.957031 -29.203125 23.722656 -29.550781 24.296875 -30 C 24.878906 -30.457031 25.375 -31.117188 25.78125 -31.984375 C 26.195312 -32.859375 26.40625 -33.914062 26.40625 -35.15625 C 26.40625 -36.394531 26.195312 -37.445312 25.78125 -38.3125 C 25.375 -39.1875 24.878906 -39.847656 24.296875 -40.296875 C 23.722656 -40.753906 22.957031 -41.101562 22 -41.34375 C 21.050781 -41.59375 20.207031 -41.738281 19.46875 -41.78125 C 18.726562 -41.820312 17.816406 -41.84375 16.734375 -41.84375 L 15.375 -41.84375 Z M 15.375 -28.453125 "/></g></g></g><g fill="#5ce1e6" fill-opacity="1"><g transform="translate(584.885667, 300.18979)"><g><path d="M 29.703125 -51.15625 L 50.34375 0 L 37.8125 0 L 34.03125 -10.234375 L 14.5625 -10.234375 L 10.78125 0 L -1.734375 0 L 18.90625 -51.15625 Z M 30.0625 -20.453125 L 24.359375 -35.34375 L 24.234375 -35.34375 L 18.53125 -20.453125 Z M 30.0625 -20.453125 "/></g></g></g><g fill="#5ce1e6" fill-opacity="1"><g transform="translate(638.137473, 300.18979)"><g><path d="M 3.71875 -51.15625 L 18.53125 -51.15625 C 25.644531 -51.15625 31.722656 -48.722656 36.765625 -43.859375 C 41.804688 -39.003906 44.328125 -32.921875 44.328125 -25.609375 C 44.328125 -18.242188 41.816406 -12.132812 36.796875 -7.28125 C 31.773438 -2.425781 25.6875 0 18.53125 0 L 3.71875 0 Z M 15.375 -10.421875 L 17.171875 -10.421875 C 21.429688 -10.421875 24.914062 -11.851562 27.625 -14.71875 C 30.332031 -17.59375 31.707031 -21.203125 31.75 -25.546875 C 31.75 -29.878906 30.394531 -33.492188 27.6875 -36.390625 C 24.976562 -39.285156 21.472656 -40.734375 17.171875 -40.734375 L 15.375 -40.734375 Z M 15.375 -10.421875 "/></g></g></g><g fill="#5ce1e6" fill-opacity="1"><g transform="translate(688.53764, 300.18979)"><g><path d="M 32.984375 -51.15625 L 32.984375 -40.921875 L 15.375 -40.921875 L 15.375 -30.75 L 32.234375 -30.75 L 32.234375 -20.515625 L 15.375 -20.515625 L 15.375 -10.234375 L 32.984375 -10.234375 L 32.984375 0 L 3.71875 0 L 3.71875 -51.15625 Z M 32.984375 -51.15625 "/></g></g></g><g fill="#5ce1e6" fill-opacity="1"><g transform="translate(729.143061, 300.18979)"><g><path d="M 42.96875 0 L 34.78125 -28.703125 L 26.59375 0 L 13.640625 0 L -0.9375 -51.15625 L 12.03125 -51.15625 L 20.765625 -16.0625 L 21.078125 -16.0625 L 30.375 -51.15625 L 39.1875 -51.15625 L 48.484375 -16.0625 L 48.796875 -16.0625 L 57.53125 -51.15625 L 70.4375 -51.15625 L 55.859375 0 Z M 42.96875 0 "/></g></g></g><g fill="#5ce1e6" fill-opacity="1"><g transform="translate(803.286215, 300.18979)"><g><path d="M 29.703125 -51.15625 L 50.34375 0 L 37.8125 0 L 34.03125 -10.234375 L 14.5625 -10.234375 L 10.78125 0 L -1.734375 0 L 18.90625 -51.15625 Z M 30.0625 -20.453125 L 24.359375 -35.34375 L 24.234375 -35.34375 L 18.53125 -20.453125 Z M 30.0625 -20.453125 "/></g></g></g><g fill="#5ce1e6" fill-opacity="1"><g transform="translate(856.53802, 300.18979)"><g><path d="M 19.71875 0 L -1.734375 -51.15625 L 11.40625 -51.15625 L 24.296875 -17.546875 L 37.203125 -51.15625 L 50.34375 -51.15625 L 28.890625 0 Z M 19.71875 0 "/></g></g></g><g fill="#5ce1e6" fill-opacity="1"><g transform="translate(909.789826, 300.18979)"><g><path d="M 32.984375 -51.15625 L 32.984375 -40.921875 L 15.375 -40.921875 L 15.375 -30.75 L 32.234375 -30.75 L 32.234375 -20.515625 L 15.375 -20.515625 L 15.375 -10.234375 L 32.984375 -10.234375 L 32.984375 0 L 3.71875 0 L 3.71875 -51.15625 Z M 32.984375 -51.15625 "/></g></g></g><g fill="#000000" fill-opacity="1"><g transform="translate(722.536959, 193.826206)"><g/></g></g><g fill="#000000" fill-opacity="1"><g transform="translate(720.700468, 353.905783)"><g/></g></g></svg>